<svg aria-hidden="true" style="position: absolute; width: 0; height: 0; overflow: hidden;" version="1.1" xmlns="http://www.w3.org/2000/svg" xmlns:xlink="http://www.w3.org/1999/xlink">
<defs>
  <symbol id="search"  viewBox="0 0 32 32">
   <path d="M31.008 27.231l-7.58-6.447c-0.784-0.705-1.622-1.029-2.299-0.998 1.789-2.096 2.87-4.815 2.87-7.787 0-6.627-5.373-12-12-12s-12 5.373-12 12 5.373 12 12 12c2.972 0 5.691-1.081 7.787-2.87-0.031 0.677 0.293 1.515 0.998 2.299l6.447 7.58c1.104 1.226 2.907 1.33 4.007 0.23s0.997-2.903-0.23-4.007zM12 20c-4.418 0-8-3.582-8-8s3.582-8 8-8 8 3.582 8 8-3.582 8-8 8z"></path>
  </symbol>


<symbol  id="sort"  viewBox="0 0 32 32">

<path d="M5.608 10.058v17.913h2.993v-17.913l3.186 4.389 2.422-1.76-7.105-9.784-7.105 9.784 2.422 1.76z"></path>
<path d="M26.392 21.942v-17.913h-2.993v17.913l-3.187-4.389-2.422 1.76 7.105 9.784 7.104-9.784-2.422-1.758z"></path>
</symbol>

<symbol id="columns" viewBox="0 0 32 32">
<path d="M28 4h-24c-2.21 0-4 1.79-4 4v16c0 2.21 1.79 4 4 4h24c2.21 0 4-1.79 4-4v-16c0-2.21-1.79-4-4-4zM20 6.667v18.667h-8v-18.667h8zM2.667 24v-16c0-0.737 0.597-1.333 1.333-1.333h5.333v18.667h-5.333c-0.737 0-1.333-0.597-1.333-1.333zM29.333 24c0 0.737-0.597 1.333-1.333 1.333h-5.333v-18.667h5.333c0.737 0 1.333 0.597 1.333 1.333v16z"></path>
</symbol>
<symbol id="filter" viewBox="0 0 32 32">
<path d="M12 21c0-0.552 0.448-1 1-1v0h6c0.552 0 1 0.448 1 1s-0.448 1-1 1v0h-6c-0.552 0-1-0.448-1-1v0zM8 15c0-0.552 0.448-1 1-1v0h14c0.552 0 1 0.448 1 1s-0.448 1-1 1v0h-14c-0.552 0-1-0.448-1-1v0zM4 9c0-0.552 0.448-1 1-1v0h22c0.552 0 1 0.448 1 1s-0.448 1-1 1v0h-22c-0.552 0-1-0.448-1-1v0z"></path>
</symbol>

<symbol id="ellipsis" viewBox="0 0 32 32">
<path d="M4 12c-2.2 0-4 1.8-4 4s1.8 4 4 4 4-1.8 4-4-1.8-4-4-4zM28 12c-2.2 0-4 1.8-4 4s1.8 4 4 4 4-1.8 4-4-1.8-4-4-4zM16 12c-2.2 0-4 1.8-4 4s1.8 4 4 4 4-1.8 4-4-1.8-4-4-4z"></path>
</symbol>
</defs>
</svg>

